<svg xmlns="http://www.w3.org/2000/svg" xmlns:xlink="http://www.w3.org/1999/xlink" width="121.031" height="19.665" viewBox="0 0 121.031 19.665">
  <defs>
    <linearGradient id="linear-gradient" x1="0.5" x2="0.5" y2="1" gradientUnits="objectBoundingBox">
      <stop offset="0" stop-color="#ffd200"/>
      <stop offset="1" stop-color="#f7971e"/>
    </linearGradient>
  </defs>
  <path id="Stars" d="M7505.463-6577.7a1.049,1.049,0,0,1-.449-1.061l.889-4.832a1.075,1.075,0,0,0-.319-.954l-3.739-3.477a1.057,1.057,0,0,1-.291-1.11,1.13,1.13,0,0,1,.91-.736l4.97-.708a1.108,1.108,0,0,0,.829-.6l2.22-4.391a1.114,1.114,0,0,1,.88-.589h.421l.17.068.109.04a.669.669,0,0,1,.161.128l.09.068a1,1,0,0,1,.2.266l2.192,4.41a1.115,1.115,0,0,0,.879.6l4.968.708a1.118,1.118,0,0,1,.889.736,1.05,1.05,0,0,1-.268,1.11l-3.611,3.439a1.087,1.087,0,0,0-.319.961l.889,4.833a1.092,1.092,0,0,1-.889,1.25,1.191,1.191,0,0,1-.709-.108l-4.429-2.282a.877.877,0,0,0-.27-.086h-.271a1.109,1.109,0,0,0-.5.128l-4.428,2.269a1.114,1.114,0,0,1-.521.128A1.116,1.116,0,0,1,7505.463-6577.7Zm-25,0a1.05,1.05,0,0,1-.449-1.061l.889-4.832a1.075,1.075,0,0,0-.319-.954l-3.74-3.477a1.052,1.052,0,0,1-.289-1.11,1.125,1.125,0,0,1,.908-.736l4.97-.708a1.108,1.108,0,0,0,.829-.6l2.22-4.391a1.117,1.117,0,0,1,.879-.589h.421l.17.068.11.04a.667.667,0,0,1,.16.128l.091.068a1.076,1.076,0,0,1,.2.266l2.189,4.41a1.118,1.118,0,0,0,.88.6l4.968.708a1.119,1.119,0,0,1,.889.736,1.051,1.051,0,0,1-.268,1.11l-3.611,3.439a1.087,1.087,0,0,0-.319.961l.891,4.833a1.1,1.1,0,0,1-.891,1.25,1.193,1.193,0,0,1-.71-.108l-4.428-2.282a.881.881,0,0,0-.27-.086h-.272a1.115,1.115,0,0,0-.5.128l-4.429,2.269a1.1,1.1,0,0,1-.521.128A1.118,1.118,0,0,1,7480.462-6577.7Zm-25,0a1.049,1.049,0,0,1-.451-1.061l.889-4.832a1.075,1.075,0,0,0-.319-.954l-3.739-3.477a1.053,1.053,0,0,1-.289-1.11,1.126,1.126,0,0,1,.91-.736l4.968-.708a1.115,1.115,0,0,0,.831-.6l2.218-4.391a1.117,1.117,0,0,1,.88-.589h.421l.17.068.109.04a.633.633,0,0,1,.161.128l.09.068a1.052,1.052,0,0,1,.2.266l2.19,4.41a1.117,1.117,0,0,0,.879.6l4.968.708a1.118,1.118,0,0,1,.889.736,1.046,1.046,0,0,1-.268,1.11l-3.611,3.439a1.086,1.086,0,0,0-.319.961l.891,4.833a1.1,1.1,0,0,1-.891,1.25,1.193,1.193,0,0,1-.709-.108l-4.429-2.282a.877.877,0,0,0-.27-.086h-.271a1.115,1.115,0,0,0-.5.128l-4.426,2.269a1.116,1.116,0,0,1-.523.128A1.106,1.106,0,0,1,7455.464-6577.7Zm-25,0a1.05,1.05,0,0,1-.451-1.061l.889-4.832a1.07,1.07,0,0,0-.319-.954l-3.74-3.477a1.052,1.052,0,0,1-.289-1.11,1.125,1.125,0,0,1,.91-.736l4.968-.708a1.113,1.113,0,0,0,.831-.6l2.218-4.391a1.116,1.116,0,0,1,.879-.589h.421l.17.068.11.04a.639.639,0,0,1,.16.128l.091.068a1.076,1.076,0,0,1,.2.266l2.189,4.41a1.118,1.118,0,0,0,.88.6l4.97.708a1.124,1.124,0,0,1,.889.736,1.047,1.047,0,0,1-.27,1.11l-3.611,3.439a1.086,1.086,0,0,0-.319.961l.891,4.833a1.094,1.094,0,0,1-.891,1.25,1.2,1.2,0,0,1-.71-.108l-4.428-2.282a.881.881,0,0,0-.27-.086h-.272a1.12,1.12,0,0,0-.5.128l-4.427,2.269a1.115,1.115,0,0,1-.523.128A1.111,1.111,0,0,1,7430.464-6577.7Zm-25,0a1.049,1.049,0,0,1-.45-1.061l.887-4.832a1.063,1.063,0,0,0-.319-.954l-3.739-3.477a1.052,1.052,0,0,1-.289-1.11,1.125,1.125,0,0,1,.91-.736l4.968-.708a1.115,1.115,0,0,0,.831-.6l2.218-4.391a1.117,1.117,0,0,1,.88-.589h.423l.17.068.107.04a.667.667,0,0,1,.162.128l.089.068a1.064,1.064,0,0,1,.2.266l2.189,4.41a1.119,1.119,0,0,0,.882.6l4.968.708a1.119,1.119,0,0,1,.889.736,1.047,1.047,0,0,1-.27,1.11l-3.611,3.439a1.092,1.092,0,0,0-.319.961l.891,4.833a1.1,1.1,0,0,1-.891,1.25,1.193,1.193,0,0,1-.709-.108l-4.429-2.282a.861.861,0,0,0-.27-.086h-.271a1.107,1.107,0,0,0-.5.128l-4.429,2.269a1.113,1.113,0,0,1-.522.128A1.111,1.111,0,0,1,7405.464-6577.7Z" transform="translate(-7400.985 6596.656)" stroke="rgba(0,0,0,0)" stroke-width="1" fill="url(#linear-gradient)"/>
</svg>
