<svg _ngcontent-ng-universal-copyleaks-c377="" width="172" height="172" viewBox="0 0 172 172" fill="none" xmlns="http://www.w3.org/2000/svg"><path _ngcontent-ng-universal-copyleaks-c377="" fill-rule="evenodd" clip-rule="evenodd" d="M86 172C133.496 172 172 133.496 172 86C172 38.5035 133.496 0 86 0C38.5035 0 0 38.5035 0 86C0 133.496 38.5035 172 86 172ZM86 160.102C45.0747 160.102 11.8982 126.925 11.8982 86C11.8982 45.0747 45.0747 11.8982 86 11.8982C126.925 11.8982 160.102 45.0747 160.102 86C160.102 126.925 126.925 160.102 86 160.102ZM85.8801 47.4497L54.6917 80.6306H72.5137V109.071H99.2466V80.6306H117.068L85.8801 47.4497ZM127.84 125H43.9031C42.5766 125.002 41.2628 124.742 40.0367 124.236C38.8106 123.73 37.6962 122.987 36.7572 122.05C35.8181 121.113 35.0728 120.001 34.5637 118.776C34.0547 117.551 33.7919 116.238 33.7903 114.911V91.0233C33.7903 90.5804 33.9662 90.1556 34.2794 89.8424C34.5926 89.5292 35.0174 89.3533 35.4603 89.3533H41.2211C41.4405 89.3531 41.6578 89.3962 41.8605 89.4801C42.0633 89.5639 42.2475 89.6869 42.4027 89.842C42.5579 89.9971 42.681 90.1813 42.765 90.3839C42.849 90.5866 42.8922 90.8039 42.8922 91.0233V114.888C42.8925 115.156 42.9992 115.413 43.1889 115.603C43.3786 115.793 43.6358 115.899 43.9041 115.9H127.84C128.108 115.9 128.366 115.793 128.555 115.603C128.745 115.413 128.852 115.156 128.852 114.888V91.0233C128.852 90.5804 129.028 90.1556 129.341 89.8424C129.654 89.5292 130.079 89.3533 130.522 89.3533H136.283C136.502 89.3531 136.719 89.3962 136.922 89.4801C137.125 89.5639 137.309 89.6869 137.464 89.842C137.619 89.9971 137.742 90.1813 137.826 90.3839C137.91 90.5866 137.954 90.8039 137.954 91.0233V114.888C137.955 116.214 137.695 117.528 137.189 118.754C136.683 119.981 135.94 121.095 135.003 122.034C134.066 122.973 132.953 123.719 131.728 124.228C130.502 124.736 129.189 124.999 127.862 125H127.84Z" fill="#052D8B"></path></svg>